<svg width="114" height="107" viewBox="0 0 114 107" fill="none" xmlns="http://www.w3.org/2000/svg">
<path d="M0.333328 0.801086H84.6203V106.667H0.333328V0.801086Z" fill="#4C1D95"/>
<path d="M7.9493 8.20062H76.9936V99.2816H7.9493V8.20062Z" fill="#C4B5FD"/>
<path d="M76.9937 8.20062V93.7003H28.7935C27.2315 93.7003 25.6848 93.402 24.2417 92.8226C22.7987 92.2432 21.4877 91.3939 20.3835 90.3233C19.2794 89.2527 18.4037 87.9817 17.8066 86.5831C17.2096 85.1845 16.9028 83.6855 16.9038 82.172V8.20062H76.9937Z" fill="#A78BFA"/>
<path d="M17.3666 17.1359C16.808 17.1359 16.2723 17.3507 15.8771 17.7332C15.4819 18.1157 15.2595 18.6346 15.2588 19.1759V29.622C15.2595 30.1633 15.4819 30.6822 15.8771 31.0647C16.2723 31.4472 16.808 31.662 17.3666 31.662H28.1471C28.7055 31.662 29.2409 31.4471 29.6358 31.0645C30.0306 30.682 30.2524 30.1631 30.2524 29.622V19.3562C30.2524 19.0644 30.193 18.7755 30.0777 18.506C29.9624 18.2364 29.7934 17.9915 29.5804 17.7853C29.3673 17.5791 29.1144 17.4156 28.8361 17.3042C28.5578 17.1927 28.2596 17.1355 27.9585 17.1359H17.3666ZM17.3666 46.1736C16.8076 46.1736 16.2715 46.3888 15.8762 46.7718C15.4809 47.1548 15.2588 47.6743 15.2588 48.216V58.6622C15.2595 59.2034 15.4819 59.7223 15.8771 60.1048C16.2723 60.4873 16.808 60.7022 17.3666 60.7022H28.1471C28.7055 60.7022 29.2409 60.4873 29.6358 60.1047C30.0306 59.7221 30.2524 59.2032 30.2524 58.6622V48.3964C30.2524 47.8068 30.0107 47.2415 29.5805 46.8246C29.1503 46.4078 28.5668 46.1736 27.9585 46.1736H17.3666ZM17.3666 74.7921C17.0899 74.7918 16.8159 74.8443 16.5602 74.9467C16.3045 75.049 16.0721 75.1992 15.8763 75.3887C15.6806 75.5782 15.5253 75.8032 15.4193 76.0508C15.3134 76.2985 15.2588 76.564 15.2588 76.8321V87.2904C15.2595 87.8317 15.4819 88.3506 15.8771 88.7331C16.2723 89.1156 16.808 89.3304 17.3666 89.3304H28.1471C28.7055 89.3304 29.2409 89.1155 29.6358 88.7329C30.0306 88.3503 30.2524 87.8315 30.2524 87.2904V77.0124C30.2524 76.7206 30.193 76.4317 30.0777 76.1622C29.9624 75.8926 29.7934 75.6477 29.5804 75.4415C29.3673 75.2353 29.1144 75.0718 28.8361 74.9604C28.5578 74.8489 28.2596 74.7918 27.9585 74.7921H17.3666Z" fill="#6D28D9"/>
<path d="M68.1701 26.1608H53.2972C52.7969 26.1608 52.3171 25.9682 51.9633 25.6254C51.6095 25.2826 51.4108 24.8177 51.4108 24.3329C51.4108 23.8481 51.6095 23.3831 51.9633 23.0403C52.3171 22.6975 52.7969 22.5049 53.2972 22.5049H68.1701C68.6704 22.5049 69.1502 22.6975 69.504 23.0403C69.8578 23.3831 70.0565 23.8481 70.0565 24.3329C70.0565 24.8177 69.8578 25.2826 69.504 25.6254C69.1502 25.9682 68.6704 26.1608 68.1701 26.1608ZM45.681 26.1608H38.0345C37.5342 26.1608 37.0544 25.9682 36.7006 25.6254C36.3468 25.2826 36.1481 24.8177 36.1481 24.3329C36.1481 23.8481 36.3468 23.3831 36.7006 23.0403C37.0544 22.6975 37.5342 22.5049 38.0345 22.5049H45.681C46.1813 22.5049 46.6611 22.6975 47.0149 23.0403C47.3687 23.3831 47.5674 23.8481 47.5674 24.3329C47.5674 24.8177 47.3687 25.2826 47.0149 25.6254C46.6611 25.9682 46.1813 26.1608 45.681 26.1608ZM68.1701 54.4649H60.8003C60.3 54.4649 59.8201 54.2723 59.4664 53.9295C59.1126 53.5867 58.9138 53.1218 58.9138 52.6369C58.9138 52.1521 59.1126 51.6872 59.4664 51.3444C59.8201 51.0016 60.3 50.809 60.8003 50.809H68.1701C68.6704 50.809 69.1502 51.0016 69.504 51.3444C69.8578 51.6872 70.0565 52.1521 70.0565 52.6369C70.0565 53.1218 69.8578 53.5867 69.504 53.9295C69.1502 54.2723 68.6704 54.4649 68.1701 54.4649ZM53.1212 54.4649H38.0295C37.5292 54.4649 37.0494 54.2723 36.6956 53.9295C36.3418 53.5867 36.143 53.1218 36.143 52.6369C36.143 52.1521 36.3418 51.6872 36.6956 51.3444C37.0494 51.0016 37.5292 50.809 38.0295 50.809H53.1212C53.6215 50.809 54.1013 51.0016 54.4551 51.3444C54.8089 51.6872 55.0076 52.1521 55.0076 52.6369C55.0076 53.1218 54.8089 53.5867 54.4551 53.9295C54.1013 54.2723 53.6215 54.4649 53.1212 54.4649ZM24.0496 27.5988H23.9767C23.7269 27.589 23.4817 27.5314 23.2551 27.4293C23.0284 27.3273 22.8249 27.1828 22.6561 27.0041L20.3194 24.5181C20.1526 24.3409 20.0235 24.1337 19.9393 23.9081C19.8552 23.6826 19.8177 23.4432 19.829 23.2037C19.8404 22.9641 19.9003 22.7291 20.0053 22.5119C20.1104 22.2948 20.2586 22.0999 20.4414 21.9382C20.6243 21.7766 20.8381 21.6514 21.0709 21.5699C21.3036 21.4884 21.5507 21.4521 21.7979 21.463C22.0451 21.474 22.2877 21.5321 22.5118 21.6339C22.7359 21.7357 22.937 21.8793 23.1038 22.0564L24.1552 23.1703L34.0252 14.2035C34.3897 13.8723 34.8752 13.6949 35.3747 13.7104C35.8743 13.726 36.347 13.9331 36.6889 14.2864C37.0307 14.6397 37.2138 15.1101 37.1978 15.5941C37.1817 16.0782 36.9679 16.5362 36.6033 16.8675L25.3399 27.104C24.9907 27.4225 24.5291 27.5995 24.0496 27.5988ZM24.0496 56.6365H23.9767C23.7269 56.6267 23.4817 56.5691 23.2551 56.4671C23.0284 56.365 22.8249 56.2205 22.6561 56.0418L20.3194 53.5558C20.1526 53.3786 20.0235 53.1714 19.9393 52.9459C19.8552 52.7203 19.8177 52.4809 19.829 52.2414C19.8404 52.0018 19.9003 51.7668 20.0053 51.5496C20.1104 51.3325 20.2586 51.1376 20.4414 50.9759C20.6243 50.8143 20.8381 50.6892 21.0709 50.6076C21.3036 50.5261 21.5507 50.4898 21.7979 50.5007C22.0451 50.5117 22.2877 50.5698 22.5118 50.6716C22.7359 50.7734 22.937 50.917 23.1038 51.0941L24.1552 52.208L34.0252 43.2412C34.3897 42.91 34.8752 42.7326 35.3747 42.7481C35.8743 42.7637 36.347 42.9709 36.6889 43.3241C37.0307 43.6774 37.2138 44.1478 37.1978 44.6318C37.1817 45.1159 36.9679 45.5739 36.6033 45.9052L25.3399 56.1418C24.9909 56.4604 24.5291 56.6374 24.0496 56.6365ZM24.0496 85.2526H23.9767C23.7269 85.2428 23.4817 85.1852 23.2551 85.0831C23.0284 84.981 22.8249 84.8365 22.6561 84.6579L20.3119 82.1719C20.1353 81.9964 19.9969 81.7883 19.9049 81.56C19.8129 81.3316 19.7693 81.0877 19.7766 80.8427C19.7839 80.5977 19.842 80.3566 19.9474 80.1338C20.0528 79.911 20.2034 79.711 20.3901 79.5457C20.5769 79.3804 20.7961 79.2532 21.0346 79.1717C21.2732 79.0901 21.5262 79.0559 21.7787 79.071C22.0311 79.0861 22.2779 79.1503 22.5042 79.2597C22.7306 79.3691 22.932 79.5215 23.0963 79.7078L24.1477 80.8216L34.0176 71.8524C34.3858 71.54 34.8648 71.3785 35.3535 71.4019C35.8423 71.4253 36.3025 71.6318 36.6371 71.9778C36.9717 72.3238 37.1544 72.7823 37.1467 73.2564C37.139 73.7305 36.9414 74.1832 36.5958 74.5188L25.3324 84.7554C24.9856 85.0732 24.5269 85.251 24.0496 85.2526ZM68.6631 83.8268H53.7927C53.2924 83.8268 52.8126 83.6342 52.4588 83.2914C52.105 82.9486 51.9063 82.4836 51.9063 81.9988C51.9063 81.514 52.105 81.0491 52.4588 80.7063C52.8126 80.3634 53.2924 80.1709 53.7927 80.1709H68.6631C69.1634 80.1709 69.6432 80.3634 69.997 80.7063C70.3508 81.0491 70.5495 81.514 70.5495 81.9988C70.5495 82.4836 70.3508 82.9486 69.997 83.2914C69.6432 83.6342 69.1634 83.8268 68.6631 83.8268ZM46.1664 83.8268H38.5275C38.0272 83.8268 37.5474 83.6342 37.1936 83.2914C36.8398 82.9486 36.6411 82.4836 36.6411 81.9988C36.6411 81.514 36.8398 81.0491 37.1936 80.7063C37.5474 80.3634 38.0272 80.1709 38.5275 80.1709H46.1664C46.6667 80.1709 47.1466 80.3634 47.5003 80.7063C47.8541 81.0491 48.0529 81.514 48.0529 81.9988C48.0529 82.4836 47.8541 82.9486 47.5003 83.2914C47.1466 83.6342 46.6667 83.8268 46.1664 83.8268Z" fill="#EDE9FE"/>
<path d="M113.667 43.59C113.667 44.0748 113.468 44.5397 113.114 44.8826C112.761 45.2254 112.281 45.418 111.78 45.418C111.28 45.418 110.8 45.2254 110.446 44.8826C110.093 44.5397 109.894 44.0748 109.894 43.59V26.8703C109.768 26.4559 109.265 25.481 107.052 25.481H105.155V22.142C105.159 22.0358 105.151 21.9295 105.13 21.8251H107.054C108.556 21.6516 110.07 22.0351 111.293 22.8986C112.515 23.7621 113.355 25.0416 113.644 26.4803L113.667 43.59ZM105.291 87.8997L99.5813 106.667L93.8465 87.8997H105.291Z" fill="#6D28D9"/>
<path d="M93.8465 43.59H105.291V87.8996H93.8465V43.59Z" fill="#C4B5FD"/>
<path d="M105.293 22.1417V43.5898H93.8485V22.1417C93.8485 20.6712 94.4514 19.2608 95.5246 18.221C96.5977 17.1811 98.0532 16.5969 99.5708 16.5969C101.088 16.5969 102.544 17.1811 103.617 18.221C104.69 19.2608 105.293 20.6712 105.293 22.1417Z" fill="#6D28D9"/>
<path d="M105.291 87.8997L99.5809 106.667V87.8997H105.291Z" fill="#7C3AED"/>
<path d="M99.5809 43.59H105.291V87.8996H99.5809V43.59Z" fill="#A78BFA"/>
<path d="M105.293 22.1421V43.5901H99.5837V16.6094C101.04 16.6086 102.441 17.149 103.499 18.1194C104.556 19.0897 105.19 20.416 105.268 21.8252C105.289 21.9295 105.298 22.0359 105.293 22.1421Z" fill="#7C3AED"/>
</svg>
